<svg width="10" height="8" viewBox="0 0 10 8" fill="none" xmlns="http://www.w3.org/2000/svg">
<path d="M9.28955 0.10144C9.43408 0.10144 9.54736 0.119019 9.62939 0.154175C9.71143 0.185425 9.77197 0.230347 9.81104 0.28894C9.854 0.347534 9.88135 0.415894 9.89307 0.494019C9.90479 0.572144 9.91064 0.654175 9.91064 0.740112V6.66394C9.91064 6.74597 9.89307 6.82605 9.85791 6.90417C9.82666 6.97839 9.78369 7.0448 9.729 7.10339C9.67432 7.15808 9.60791 7.203 9.52979 7.23816C9.45557 7.26941 9.37549 7.28503 9.28955 7.28503H0.799316C0.697754 7.28503 0.60791 7.27722 0.529785 7.2616C0.45166 7.24597 0.385254 7.21667 0.330566 7.17371C0.279785 7.13074 0.240723 7.06824 0.213379 6.98621C0.189941 6.90417 0.178223 6.79675 0.178223 6.66394V0.740112C0.178223 0.650269 0.186035 0.566284 0.20166 0.488159C0.217285 0.410034 0.248535 0.343628 0.29541 0.28894C0.342285 0.230347 0.404785 0.185425 0.48291 0.154175C0.564941 0.119019 0.67041 0.10144 0.799316 0.10144H9.28955ZM1.31494 0.968628L5.06494 3.79285L8.83252 0.968628H1.31494ZM9.04346 6.46472V1.83582L5.31104 4.67761C5.23291 4.73621 5.15088 4.7655 5.06494 4.7655C4.96729 4.7655 4.88135 4.73621 4.80713 4.67761L1.05713 1.83582V6.46472H9.04346Z" fill="#0F0C0D"/>
</svg>
