<svg width="292" height="292" viewBox="0 0 292 292" fill="none" xmlns="http://www.w3.org/2000/svg">
<g clip-path="url(#clip0)">
<path d="M5 286.161V5H286.161V286.161H5Z" fill="#FFBF00" stroke="#FCFCFC" stroke-width="10"/>
<path d="M72.4261 127.454C67.0102 127.489 61.6363 126.501 56.587 124.542C51.6707 122.637 47.2165 119.707 43.5212 115.946C39.609 111.891 36.5868 107.064 34.648 101.774C32.4886 96.1349 31.4065 89.6153 31.4016 82.2149C31.2887 75.5381 32.437 68.8999 34.7863 62.649C36.833 57.2521 39.9138 52.3069 43.856 48.0909C47.5909 44.1721 52.1133 41.0885 57.1256 39.0431C62.2061 36.9595 67.6484 35.9008 73.1395 35.9277C78.4379 35.8421 83.6796 37.0278 88.4254 39.3852C92.586 41.4337 96.3807 44.1536 99.6569 47.4358L89.1023 60.1668C86.9603 58.1703 84.5701 56.4578 81.9907 55.0715C79.3688 53.7381 76.4589 53.0707 73.518 53.128C70.5828 53.1185 67.6853 53.7887 65.0525 55.0861C62.3601 56.4181 60.0017 58.3386 58.152 60.7055C56.0849 63.3798 54.5234 66.409 53.5444 69.6441C52.3673 73.5045 51.7976 77.5244 51.8556 81.5598C51.8556 90.6732 53.7967 97.7338 57.6788 102.742C61.561 107.75 66.7509 110.256 73.2486 110.261C76.6263 110.318 79.9613 109.501 82.9297 107.888C85.736 106.342 88.2749 104.353 90.449 101.999L101.004 114.454C93.5983 123.125 84.0725 127.459 72.4261 127.454Z" fill="#0F0E0E"/>
<path d="M112.767 125.831V30.9197H132.129V85.3449H132.675L153.929 58.6746H175.592L152.03 86.2985L177.346 125.831H155.822L140.66 99.6991L132.129 109.315V125.831H112.767Z" fill="#0F0E0E"/>
<path d="M177.788 199.535H30.9197V260.235H177.788V199.535Z" fill="#0F0E0E"/>
<path d="M55.1687 252.708C53.683 252.692 52.2217 252.33 50.9007 251.653C49.3767 250.884 48.0147 249.831 46.8884 248.552H46.6326L45.8579 251.944H38.4765V207.113H47.9116V218.111L47.6558 222.974C48.8446 221.901 50.1994 221.026 51.668 220.382C53.0502 219.777 54.5431 219.462 56.0531 219.458C57.8153 219.42 59.5618 219.795 61.1514 220.554C62.741 221.313 64.1289 222.433 65.2031 223.825C66.3562 225.336 67.2072 227.054 67.7099 228.884C68.3092 231.038 68.5996 233.266 68.5723 235.501C68.6105 237.972 68.2325 240.433 67.4541 242.78C66.7892 244.749 65.7661 246.58 64.4357 248.181C63.2543 249.589 61.7873 250.732 60.1311 251.536C58.5878 252.297 56.8908 252.698 55.1687 252.708ZM52.9762 245.036C53.7967 245.032 54.6041 244.832 55.3304 244.452C56.0566 244.072 56.6805 243.523 57.1493 242.853C58.3138 241.397 58.8936 239.019 58.8887 235.719C58.8887 230.003 57.047 227.147 53.3636 227.152C51.478 227.152 49.6582 228.11 47.9042 230.027V243.013C48.645 243.711 49.5201 244.254 50.4768 244.607C51.281 244.894 52.1293 245.039 52.9835 245.036H52.9762Z" fill="#FCFCFC"/>
<path d="M83.9345 252.708C82.5288 252.763 81.1279 252.514 79.8272 251.98C78.7639 251.514 77.8435 250.776 77.1597 249.84C76.4503 248.842 75.953 247.71 75.698 246.514C75.3803 245.08 75.2283 243.615 75.2449 242.147V207.113H84.6873V242.481C84.6108 243.206 84.8031 243.934 85.2281 244.527C85.366 244.694 85.5371 244.832 85.7308 244.931C85.9244 245.03 86.1364 245.088 86.3536 245.102H86.9017C87.1095 245.09 87.3141 245.045 87.5083 244.971L88.663 251.944C88.0298 252.19 87.3737 252.373 86.7044 252.49C85.7895 252.645 84.8625 252.718 83.9345 252.708Z" fill="#FCFCFC"/>
<path d="M107.497 252.708C105.381 252.728 103.281 252.351 101.307 251.595C99.4409 250.872 97.7462 249.772 96.3296 248.363C94.862 246.878 93.7241 245.102 92.9897 243.151C92.1433 240.892 91.7294 238.494 91.7692 236.083C91.7252 233.66 92.1829 231.254 93.1139 229.015C93.9518 227.042 95.1968 225.266 96.7681 223.803C98.3027 222.388 100.104 221.29 102.067 220.572C104.08 219.828 106.212 219.451 108.359 219.458C110.15 219.426 111.929 219.75 113.592 220.411C115.061 221.024 116.434 221.842 117.67 222.843L113.234 228.921C112.064 227.82 110.543 227.163 108.937 227.064C107.899 227.018 106.866 227.214 105.918 227.636C104.97 228.058 104.134 228.695 103.477 229.496C102.147 231.119 101.489 233.31 101.489 236.083C101.489 238.856 102.162 241.047 103.506 242.671C104.112 243.442 104.89 244.064 105.777 244.485C106.665 244.907 107.639 245.118 108.622 245.102C109.654 245.1 110.672 244.871 111.604 244.432C112.568 243.981 113.483 243.435 114.337 242.802L118.057 248.938C116.571 250.249 114.83 251.24 112.941 251.849C111.182 252.414 109.345 252.704 107.497 252.708Z" fill="#FCFCFC"/>
<path d="M123.619 251.944V207.113H132.798V232.851H133.054L143.139 220.251H153.408L142.24 233.295L154.241 251.973H144.009L136.818 239.599L132.769 244.141V251.944H123.619Z" fill="#FCFCFC"/>
<path d="M164.516 252.708C163.755 252.727 162.998 252.586 162.296 252.294C161.593 252.001 160.96 251.565 160.438 251.012C159.901 250.457 159.479 249.802 159.198 249.083C158.917 248.365 158.782 247.598 158.801 246.827C158.777 246.046 158.91 245.267 159.191 244.538C159.472 243.808 159.896 243.141 160.438 242.576C160.972 242.039 161.607 241.613 162.307 241.322C163.007 241.031 163.758 240.881 164.516 240.881C165.275 240.881 166.026 241.031 166.726 241.322C167.426 241.613 168.061 242.039 168.594 242.576C169.137 243.141 169.56 243.808 169.841 244.538C170.123 245.267 170.255 246.046 170.231 246.827C170.25 247.598 170.115 248.365 169.834 249.083C169.553 249.802 169.132 250.457 168.594 251.012C168.073 251.565 167.44 252.003 166.737 252.295C166.035 252.587 165.278 252.728 164.516 252.708Z" fill="#FCFCFC"/>
</g>
<defs>
<clipPath id="clip0">
<rect width="291.161" height="291.161" fill="white"/>
</clipPath>
</defs>
</svg>
